<svg width="656" height="654" viewBox="0 0 656 654" fill="none" xmlns="http://www.w3.org/2000/svg">
<path d="M590.546 330.668C588.719 473.823 472.103 589.542 328.512 589.542C183.78 589.542 66.4616 472.227 66.4616 327.501C66.4616 185.751 178.275 70.2954 318.906 65.6284C318.643 47.4229 318.994 31.6746 318.85 12.1289C148.684 16.8119 13 156.217 13 327.501C13 501.753 154.253 643.001 328.512 643.001C501.542 643.001 642.037 503.229 644 330.668C626.009 330.804 608.768 330.668 590.546 330.668Z" fill="#005BAA"/>
<path d="M328.24 12C328.336 30.2613 328.16 46.7834 328.24 65.4596C472.884 65.5473 590.729 177.508 590.729 322.171H643.856C640.912 150.472 500.648 12 328.24 12Z" fill="#00A651"/>
<path d="M470.07 318.281V417.542H431.623C426.597 417.542 422.528 413.465 422.528 408.447V390.84C422.528 390.688 422.528 390.536 422.536 390.385V390.361C422.568 371.254 422.592 352.155 422.592 333.048C422.624 321.377 421.579 309.769 413.784 300.467C407.226 292.632 397.373 287.933 387.129 287.933C365.716 287.933 352.695 305.892 352.089 325.748C351.85 333.551 351.738 341.361 351.698 349.179C351.658 354.947 351.666 360.739 351.698 366.507V407.912C351.698 412.587 348.379 416.472 343.951 417.358C343.656 417.422 343.361 417.462 343.066 417.494C342.906 417.51 342.747 417.51 342.571 417.526C342.436 417.541 342.3 417.542 342.164 417.542H313.914C308.528 417.542 304.156 413.146 304.156 407.761C304.156 393.999 304.324 380.245 304.38 366.499C304.412 360.731 304.42 354.939 304.38 349.171C304.34 341.361 304.236 333.551 303.989 325.74C303.398 305.892 290.362 287.925 268.949 287.925C258.713 287.925 248.86 292.624 242.294 300.459C234.499 309.769 233.462 321.369 233.486 333.04C233.486 361.218 233.558 389.372 233.558 417.534H193.994C189.598 417.534 186 413.943 186 409.54V318.273C186.223 310.934 187.428 303.825 189.486 297.068C199.818 263.027 231.635 238 268.821 238C291.91 238 312.932 247.653 328.019 263.122C343.114 247.661 364.136 238 387.233 238C424.411 238 456.236 263.027 466.568 297.068C468.642 303.825 469.839 310.941 470.07 318.281Z" fill="#005BAA"/>
</svg>
