<svg width="34" height="34" viewBox="0 0 34 34" fill="none" xmlns="http://www.w3.org/2000/svg">
<path d="M0 4C0 1.79086 1.79086 0 4 0H30C32.2091 0 34 1.79086 34 4V30C34 32.2091 32.2091 34 30 34H4C1.79086 34 0 32.2091 0 30V4Z" fill="white"/>
<path fill-rule="evenodd" clip-rule="evenodd" d="M17 7C22.5229 7 27 11.4771 27 17C27 22.5229 22.5229 27 17 27C11.4771 27 7 22.5229 7 17C7 11.4771 11.4771 7 17 7ZM21.2197 11.2096L17.0006 15.4286L12.7894 11.2174L11.2181 12.7888L15.4293 17L11.2181 21.2112L12.7894 22.7826L17.0006 18.5714L21.2197 22.7904L22.791 21.2191L18.572 17L22.791 12.7809L21.2197 11.2096Z" fill="#005BAA"/>
</svg>
