<svg width="30" height="20" viewBox="0 0 30 20" fill="none" xmlns="http://www.w3.org/2000/svg">
<g clip-path="url(#clip0_15345_16238)">
<rect width="30" height="20" rx="1.66667" fill="white"/>
<g clip-path="url(#clip1_15345_16238)">
<path d="M26.0172 -0.226562H3.98018C3.14524 -0.226562 2.34449 0.105116 1.7541 0.695509C1.16371 1.2859 0.832031 2.08665 0.832031 2.92159L0.832031 10.0049H29.1654V2.92159C29.1654 2.08665 28.8337 1.2859 28.2433 0.695509C27.6529 0.105116 26.8522 -0.226562 26.0172 -0.226562Z" fill="#DC1F26"/>
<path d="M29.1654 17.0833C29.1654 17.9183 28.8337 18.719 28.2433 19.3094C27.6529 19.8998 26.8522 20.2315 26.0172 20.2315H3.98018C3.14524 20.2315 2.34449 19.8998 1.7541 19.3094C1.16371 18.719 0.832031 17.9183 0.832031 17.0833V10H29.1654V17.0833Z" fill="#EEEEEE"/>
</g>
</g>
<rect x="0.208333" y="0.208333" width="29.5833" height="19.5833" rx="1.45833" stroke="#E2DFDF" stroke-width="0.416667"/>
<defs>
<clipPath id="clip0_15345_16238">
<rect width="30" height="20" rx="1.66667" fill="white"/>
</clipPath>
<clipPath id="clip1_15345_16238">
<rect width="28.3333" height="28.3333" fill="white" transform="translate(0.832031 -4.16406)"/>
</clipPath>
</defs>
</svg>
