<svg width="30" height="20" viewBox="0 0 30 20" fill="none" xmlns="http://www.w3.org/2000/svg">
<g clip-path="url(#clip0_15345_16177)">
<rect width="30" height="20" rx="1.66667" fill="white"/>
<path d="M30 17.4974C30 18.3815 29.6488 19.2293 29.0237 19.8544C28.3986 20.4795 27.5507 20.8307 26.6667 20.8307H3.33333C2.44928 20.8307 1.60143 20.4795 0.976311 19.8544C0.35119 19.2293 0 18.3815 0 17.4974V2.4974C0 1.61334 0.35119 0.765494 0.976311 0.140373C1.60143 -0.484748 2.44928 -0.835937 3.33333 -0.835938H26.6667C27.5507 -0.835937 28.3986 -0.484748 29.0237 0.140373C29.6488 0.765494 30 1.61334 30 2.4974V17.4974Z" fill="#DD2E44"/>
<path d="M0.4625 19.1693H29.5383C29.8373 18.6645 29.9966 18.0893 30 17.5026H0C0 18.1126 0.175833 18.6768 0.4625 19.1693ZM0 14.1693H30V15.8359H0V14.1693ZM0 10.8359H30V12.5026H0V10.8359ZM0 7.5026H30V9.16927H0V7.5026ZM0 4.16927H30V5.83594H0V4.16927ZM0.4625 0.835938C0.162893 1.34049 0.00324179 1.91581 0 2.5026H30C30 1.8926 29.8242 1.3276 29.5375 0.835938H0.4625Z" fill="#EEEEEE"/>
<path d="M15 -0.835938H3.33333C2.44928 -0.835937 1.60143 -0.484748 0.976311 0.140373C0.35119 0.765494 0 1.61334 0 2.4974L0 10.8307H15V-0.835938Z" fill="#010066"/>
<path d="M7.9463 9.36083C6.8045 9.33862 5.71695 8.86947 4.91727 8.05416C4.1176 7.23885 3.66958 6.14243 3.66947 5.00041C3.66937 3.85839 4.11717 2.76188 4.91669 1.94642C5.71621 1.13096 6.80367 0.661599 7.94547 0.639167C8.5413 0.639167 9.10964 0.760834 9.62714 0.976667C8.77106 0.34209 7.73359 -0.000325679 6.66797 2.32437e-07C5.34189 2.32437e-07 4.07012 0.526785 3.13243 1.46447C2.19475 2.40215 1.66797 3.67392 1.66797 5C1.66797 6.32608 2.19475 7.59785 3.13243 8.53554C4.07012 9.47322 5.34189 10 6.66797 10C7.73359 10.0003 8.77106 9.65791 9.62714 9.02333C9.09492 9.24665 8.52347 9.36139 7.9463 9.36083Z" fill="#FFCC4D"/>
<path d="M10.7698 2.35938L11.0481 3.70937L11.884 2.61354L11.549 3.95021L12.7781 3.32604L11.8956 4.38521L13.274 4.35604L12.0198 4.92771L13.274 5.49937L11.8956 5.47021L12.7781 6.52937L11.549 5.90521L11.884 7.24271L11.0481 6.14604L10.7698 7.49688L10.4915 6.14604L9.65563 7.24271L9.99063 5.90521L8.76146 6.52937L9.64312 5.47021L8.26562 5.49937L9.51979 4.92771L8.26562 4.35604L9.64312 4.38521L8.76146 3.32604L9.99063 3.95021L9.65563 2.61354L10.4915 3.70937L10.7698 2.35938Z" fill="#FFCC4D"/>
</g>
<rect x="0.208333" y="0.208333" width="29.5833" height="19.5833" rx="1.45833" stroke="#E2DFDF" stroke-width="0.416667"/>
<defs>
<clipPath id="clip0_15345_16177">
<rect width="30" height="20" rx="1.66667" fill="white"/>
</clipPath>
</defs>
</svg>
