<svg width="34" height="34" viewBox="0 0 34 34" fill="none" xmlns="http://www.w3.org/2000/svg">
<path d="M0 4C0 1.79086 1.79086 0 4 0H30C32.2091 0 34 1.79086 34 4V30C34 32.2091 32.2091 34 30 34H4C1.79086 34 0 32.2091 0 30V4Z" fill="white"/>
<path d="M17 7C11.477 7 7 11.477 7 17C7 22.523 11.477 27 17 27C22.523 27 27 22.523 27 17C27 11.477 22.523 7 17 7ZM19.586 21L16.293 17.707C16.105 17.519 16 17.265 16 17V12C16 11.448 16.448 11 17 11C17.552 11 18 11.448 18 12V16.586L21 19.586C21.39 19.976 21.39 20.61 21 21C20.61 21.39 19.976 21.39 19.586 21Z" fill="#005BAA"/>
</svg>
