<svg width="32" height="32" viewBox="0 0 32 32" fill="none" xmlns="http://www.w3.org/2000/svg">
<path d="M24 3.3C21.65 1.85 18.95 1 16 1V3.3H24Z" fill="#ED4C5C"/>
<path d="M16 5.59687H26.8C25.95 4.74687 25 3.94687 24 3.29688H16V5.59687Z" fill="white"/>
<path d="M16 7.89375H28.65C28.1 7.04375 27.5 6.29375 26.85 5.59375H16V7.89375Z" fill="#ED4C5C"/>
<path d="M16 10.2062H29.85C29.5 9.40625 29.1 8.60625 28.65 7.90625H16V10.2062Z" fill="white"/>
<path d="M16 12.5031H30.6C30.4 11.7031 30.15 10.9531 29.85 10.2031H16V12.5031Z" fill="#ED4C5C"/>
<path d="M16 14.8469H30.95C30.9 14.0469 30.75 13.2969 30.6 12.5469H16V14.8469Z" fill="white"/>
<path d="M30.95 14.8438H16V15.9937H1C1 16.3937 1 16.7437 1.05 17.1437H30.95C31 16.7437 31 16.3937 31 15.9937C31 15.5937 31 15.1937 30.95 14.8438Z" fill="#ED4C5C"/>
<path d="M1.39688 19.4563H30.5969C30.7969 18.7063 30.8969 17.9563 30.9469 17.1562H1.04688C1.09688 17.9062 1.24688 18.7063 1.39688 19.4563Z" fill="white"/>
<path d="M2.14844 21.7531H29.8484C30.1484 21.0031 30.3984 20.2531 30.5984 19.4531H1.39844C1.59844 20.2531 1.84844 21.0031 2.14844 21.7531Z" fill="#ED4C5C"/>
<path d="M3.34844 24.05H28.6484C29.0984 23.3 29.4984 22.55 29.8484 21.75H2.14844C2.49844 22.55 2.89844 23.3 3.34844 24.05Z" fill="white"/>
<path d="M5.15156 26.3469H26.8516C27.5016 25.6469 28.1516 24.8469 28.6516 24.0469H3.35156C3.85156 24.8969 4.50156 25.6469 5.15156 26.3469Z" fill="#ED4C5C"/>
<path d="M7.94844 28.6437H24.0484C25.0984 27.9937 25.9984 27.1938 26.8484 26.3438H5.14844C5.99844 27.2437 6.94844 27.9937 7.94844 28.6437Z" fill="white"/>
<path d="M16.0031 31.0063C18.9531 31.0063 21.7031 30.1562 24.0531 28.6562H7.95312C10.3031 30.1562 13.0531 31.0063 16.0031 31.0063Z" fill="#ED4C5C"/>
<path d="M8 3.3C6.95 3.95 6 4.75 5.15 5.6C4.45 6.3 3.85 7.1 3.35 7.9C2.9 8.65 2.45 9.4 2.15 10.2C1.85 10.95 1.6 11.7 1.4 12.5C1.2 13.25 1.1 14 1.05 14.8C1 15.2 1 15.6 1 16H16V1C13.05 1 10.35 1.85 8 3.3Z" fill="#192F5D"/>
<path d="M12.5031 1.5L12.7531 2.25H13.5031L12.9031 2.75L13.1031 3.5L12.5031 3.05L11.9031 3.5L12.1031 2.75L11.5031 2.25H12.2531L12.5031 1.5ZM14.5031 4.5L14.7531 5.25H15.5031L14.9031 5.75L15.1031 6.5L14.5031 6.05L13.9031 6.5L14.1031 5.75L13.5031 5.25H14.2531L14.5031 4.5ZM10.5031 4.5L10.7531 5.25H11.5031L10.9031 5.75L11.1031 6.5L10.5031 6.05L9.90312 6.5L10.1031 5.75L9.50313 5.25H10.2531L10.5031 4.5ZM12.5031 7.5L12.7531 8.25H13.5031L12.9031 8.75L13.1031 9.5L12.5031 9.05L11.9031 9.5L12.1031 8.75L11.5031 8.25H12.2531L12.5031 7.5ZM8.50313 7.5L8.75313 8.25H9.50313L8.90312 8.75L9.10313 9.5L8.50313 9.05L7.90312 9.5L8.10313 8.75L7.50313 8.25H8.25313L8.50313 7.5ZM4.50312 7.5L4.75312 8.25H5.50312L4.90313 8.75L5.10312 9.5L4.50312 9.05L3.90313 9.5L4.10312 8.75L3.50312 8.25H4.25312L4.50312 7.5ZM14.5031 10.5L14.7531 11.25H15.5031L14.9031 11.75L15.1031 12.5L14.5031 12.05L13.9031 12.5L14.1031 11.75L13.5031 11.25H14.2531L14.5031 10.5ZM10.5031 10.5L10.7531 11.25H11.5031L10.9031 11.75L11.1031 12.5L10.5031 12.05L9.90312 12.5L10.1031 11.75L9.50313 11.25H10.2531L10.5031 10.5ZM6.50313 10.5L6.75313 11.25H7.50313L6.90312 11.75L7.10312 12.5L6.50313 12.05L5.90312 12.5L6.10312 11.75L5.50312 11.25H6.25313L6.50313 10.5ZM12.5031 13.5L12.7531 14.25H13.5031L12.9031 14.75L13.1031 15.5L12.5031 15.05L11.9031 15.5L12.1031 14.75L11.5031 14.25H12.2531L12.5031 13.5ZM8.50313 13.5L8.75313 14.25H9.50313L8.90312 14.75L9.10313 15.5L8.50313 15.05L7.90312 15.5L8.10313 14.75L7.50313 14.25H8.25313L8.50313 13.5ZM4.50312 13.5L4.75312 14.25H5.50312L4.90313 14.75L5.10312 15.5L4.50312 15.05L3.90313 15.5L4.10312 14.75L3.50312 14.25H4.25312L4.50312 13.5ZM5.90312 6.5L6.50313 6.05L7.10312 6.5L6.85312 5.75L7.45312 5.25H6.70312L6.50313 4.5L6.25313 5.25H5.55313L6.15312 5.7L5.90312 6.5ZM1.90312 12.5L2.50312 12.05L3.10312 12.5L2.85312 11.75L3.45312 11.25H2.75312L2.50312 10.5L2.25312 11.25H1.75312C1.75312 11.3 1.70312 11.35 1.70312 11.4L2.10312 11.7L1.90312 12.5Z" fill="white"/>
</svg>
