<svg width="30" height="20" viewBox="0 0 30 20" fill="none" xmlns="http://www.w3.org/2000/svg">
<g clip-path="url(#clip0_15345_16245)">
<rect width="30" height="20" rx="1.66667" fill="white"/>
<g clip-path="url(#clip1_15345_16245)">
<path d="M28.3346 16.6713C28.3346 17.4571 28.0225 18.2108 27.4668 18.7664C26.9111 19.3221 26.1575 19.6343 25.3717 19.6343H4.63093C3.8451 19.6343 3.09146 19.3221 2.5358 18.7664C1.98014 18.2108 1.66797 17.4571 1.66797 16.6713V3.33796C1.66797 2.55214 1.98014 1.79849 2.5358 1.24283C3.09146 0.687168 3.8451 0.375 4.63093 0.375H25.3717C26.1575 0.375 26.9111 0.687168 27.4668 1.24283C28.0225 1.79849 28.3346 2.55214 28.3346 3.33796V16.6713Z" fill="#EEEEEE"/>
<path d="M28.3346 10.0046V3.33796C28.3346 2.55214 28.0225 1.79849 27.4668 1.24283C26.9111 0.687168 26.1575 0.375 25.3717 0.375H4.63093C3.8451 0.375 3.09146 0.687168 2.5358 1.24283C1.98014 1.79849 1.66797 2.55214 1.66797 3.33796L1.66797 10.0046H28.3346Z" fill="#ED2939"/>
<path d="M6.11285 5.18345C6.11285 3.26863 7.31581 1.66641 8.93507 1.23086C8.61766 1.15155 8.29186 1.11076 7.9647 1.10938C6.88419 1.10938 5.84793 1.53861 5.08389 2.30264C4.31986 3.06668 3.89063 4.10294 3.89062 5.18345C3.89063 6.26396 4.31986 7.30022 5.08389 8.06425C5.84793 8.82829 6.88419 9.25752 7.9647 9.25752C8.29951 9.25752 8.62322 9.21308 8.93507 9.13604C7.31581 8.70049 6.11285 7.09826 6.11285 5.18345Z" fill="white"/>
<path d="M10.5517 1.85156L10.7183 2.36341H11.2561L10.8206 2.67971L10.9872 3.19156L10.5517 2.87527L10.1161 3.19156L10.2828 2.67971L9.84722 2.36341H10.385L10.5517 1.85156ZM9.07019 7.03675L9.23685 7.5486H9.77463L9.33907 7.8649L9.50574 8.37675L9.07019 8.06045L8.63463 8.37675L8.8013 7.8649L8.36574 7.5486H8.90352L9.07019 7.03675ZM12.0331 7.03675L12.1998 7.5486H12.7376L12.302 7.8649L12.4687 8.37675L12.0331 8.06045L11.5976 8.37675L11.7643 7.8649L11.3287 7.5486H11.8665L12.0331 7.03675ZM8.32944 4.07378L8.49611 4.58564H9.03389L8.59833 4.90193L8.765 5.41378L8.32944 5.09749L7.89389 5.41378L8.06056 4.90193L7.625 4.58564H8.16278L8.32944 4.07378ZM12.7739 4.07378L12.9406 4.58564H13.4783L13.0428 4.90193L13.2094 5.41378L12.7739 5.09749L12.3383 5.41378L12.505 4.90193L12.0694 4.58564H12.6072L12.7739 4.07378Z" fill="#EEEEEE"/>
</g>
</g>
<rect x="0.208333" y="0.208333" width="29.5833" height="19.5833" rx="1.45833" stroke="#E2DFDF" stroke-width="0.416667"/>
<defs>
<clipPath id="clip0_15345_16245">
<rect width="30" height="20" rx="1.66667" fill="white"/>
</clipPath>
<clipPath id="clip1_15345_16245">
<rect width="26.6667" height="26.6667" fill="white" transform="translate(1.66797 -3.33594)"/>
</clipPath>
</defs>
</svg>
