<svg width="30" height="20" viewBox="0 0 30 20" fill="none" xmlns="http://www.w3.org/2000/svg">
<g clip-path="url(#clip0_15345_16233)">
<rect width="30" height="20" rx="1.66667" fill="white"/>
<g clip-path="url(#clip1_15345_16233)">
<path d="M0.832031 -0.625H29.1654V20.625H0.832031" fill="#BD3D44"/>
<path d="M0.832031 1.82031H29.1654ZM0.832031 5.08307H29.1654ZM0.832031 8.35911H29.1654ZM0.832031 11.6352H29.1654ZM0.832031 14.9112H29.1654ZM0.832031 18.1872H29.1654Z" fill="black"/>
<path d="M0.832031 1.82031H29.1654M0.832031 5.08307H29.1654M0.832031 8.35911H29.1654M0.832031 11.6352H29.1654M0.832031 14.9112H29.1654M0.832031 18.1872H29.1654" stroke="white" stroke-width="1.63802"/>
<path d="M0.832031 -0.625H16.982V10.819H0.832031" fill="#192F5D"/>
<path d="M10.668 -1.66406L10.8763 -1.03906H11.5013L11.0013 -0.622396L11.168 0.00260425L10.668 -0.372396L10.168 0.00260425L10.3346 -0.622396L9.83464 -1.03906H10.4596L10.668 -1.66406ZM12.3346 0.835938L12.543 1.46094H13.168L12.668 1.8776L12.8346 2.5026L12.3346 2.1276L11.8346 2.5026L12.0013 1.8776L11.5013 1.46094H12.1263L12.3346 0.835938ZM9.0013 0.835938L9.20964 1.46094H9.83464L9.33464 1.8776L9.5013 2.5026L9.0013 2.1276L8.5013 2.5026L8.66797 1.8776L8.16797 1.46094H8.79297L9.0013 0.835938ZM10.668 3.33594L10.8763 3.96094H11.5013L11.0013 4.3776L11.168 5.0026L10.668 4.6276L10.168 5.0026L10.3346 4.3776L9.83464 3.96094H10.4596L10.668 3.33594ZM7.33464 3.33594L7.54297 3.96094H8.16797L7.66797 4.3776L7.83464 5.0026L7.33464 4.6276L6.83464 5.0026L7.0013 4.3776L6.5013 3.96094H7.1263L7.33464 3.33594ZM4.0013 3.33594L4.20964 3.96094H4.83464L4.33464 4.3776L4.5013 5.0026L4.0013 4.6276L3.5013 5.0026L3.66797 4.3776L3.16797 3.96094H3.79297L4.0013 3.33594ZM12.3346 5.83594L12.543 6.46094H13.168L12.668 6.8776L12.8346 7.5026L12.3346 7.1276L11.8346 7.5026L12.0013 6.8776L11.5013 6.46094H12.1263L12.3346 5.83594ZM9.0013 5.83594L9.20964 6.46094H9.83464L9.33464 6.8776L9.5013 7.5026L9.0013 7.1276L8.5013 7.5026L8.66797 6.8776L8.16797 6.46094H8.79297L9.0013 5.83594ZM5.66797 5.83594L5.8763 6.46094H6.5013L6.0013 6.8776L6.16797 7.5026L5.66797 7.1276L5.16797 7.5026L5.33464 6.8776L4.83464 6.46094H5.45964L5.66797 5.83594ZM10.668 8.33594L10.8763 8.96094H11.5013L11.0013 9.3776L11.168 10.0026L10.668 9.6276L10.168 10.0026L10.3346 9.3776L9.83464 8.96094H10.4596L10.668 8.33594ZM7.33464 8.33594L7.54297 8.96094H8.16797L7.66797 9.3776L7.83464 10.0026L7.33464 9.6276L6.83464 10.0026L7.0013 9.3776L6.5013 8.96094H7.1263L7.33464 8.33594ZM4.0013 8.33594L4.20964 8.96094H4.83464L4.33464 9.3776L4.5013 10.0026L4.0013 9.6276L3.5013 10.0026L3.66797 9.3776L3.16797 8.96094H3.79297L4.0013 8.33594ZM5.16797 2.5026L5.66797 2.1276L6.16797 2.5026L5.95963 1.8776L6.45964 1.46094H5.83464L5.66797 0.835938L5.45964 1.46094H4.8763L5.3763 1.83594L5.16797 2.5026ZM1.83464 7.5026L2.33464 7.1276L2.83464 7.5026L2.6263 6.8776L3.1263 6.46094H2.54297L2.33464 5.83594L2.1263 6.46094H1.70964C1.70964 6.5026 1.66797 6.54427 1.66797 6.58594L2.0013 6.83594L1.83464 7.5026Z" fill="white"/>
</g>
</g>
<rect x="0.208333" y="0.208333" width="29.5833" height="19.5833" rx="1.45833" stroke="#E2DFDF" stroke-width="0.416667"/>
<defs>
<clipPath id="clip0_15345_16233">
<rect width="30" height="20" rx="1.66667" fill="white"/>
</clipPath>
<clipPath id="clip1_15345_16233">
<rect width="28.3333" height="21.25" fill="white" transform="translate(0.832031 -0.625)"/>
</clipPath>
</defs>
</svg>
