<svg width="40" height="40" viewBox="0 0 40 40" fill="none" xmlns="http://www.w3.org/2000/svg">
<path d="M24.6654 7.6881L35.8337 26.2898C37.4387 28.9614 36.6504 32.4764 34.072 34.1398C33.2072 34.7012 32.1981 34.9999 31.167 34.9998H8.8287C5.7937 34.9998 3.33203 32.4498 3.33203 29.3014C3.33203 28.2364 3.62036 27.1948 4.16203 26.2898L15.332 7.6881C16.9354 5.01643 20.3254 4.1981 22.9037 5.86143C23.617 6.32143 24.2204 6.94643 24.6654 7.6881ZM19.9987 28.3331C20.4407 28.3331 20.8646 28.1575 21.1772 27.8449C21.4898 27.5324 21.6654 27.1085 21.6654 26.6664C21.6654 26.2244 21.4898 25.8005 21.1772 25.4879C20.8646 25.1754 20.4407 24.9998 19.9987 24.9998C19.5567 24.9998 19.1327 25.1754 18.8202 25.4879C18.5076 25.8005 18.332 26.2244 18.332 26.6664C18.332 27.1085 18.5076 27.5324 18.8202 27.8449C19.1327 28.1575 19.5567 28.3331 19.9987 28.3331ZM19.9987 13.3331C19.5567 13.3331 19.1327 13.5087 18.8202 13.8213C18.5076 14.1338 18.332 14.5577 18.332 14.9998V21.6664C18.332 22.1085 18.5076 22.5324 18.8202 22.8449C19.1327 23.1575 19.5567 23.3331 19.9987 23.3331C20.4407 23.3331 20.8646 23.1575 21.1772 22.8449C21.4898 22.5324 21.6654 22.1085 21.6654 21.6664V14.9998C21.6654 14.5577 21.4898 14.1338 21.1772 13.8213C20.8646 13.5087 20.4407 13.3331 19.9987 13.3331Z" fill="#F06A6A"/>
</svg>
